<?xml version="1.0" encoding="UTF-8"?>
<svg id="Artwork" xmlns="http://www.w3.org/2000/svg" viewBox="0 0 970 260">
  <defs>
    <style>
      .cls-1 {
        fill: #fff;
      }
    </style>
  </defs>
  <path class="cls-1" d="M938.56,19.96h-187.51l-16.29,16.2v187.73l16.6,16.49h187.65l16.33-16.23V36.63l-16.77-16.67ZM899.72,176.83l-8.08,8.03h-92.84l-8.21-8.16v-8.2l-.14-.14v-76.76l.14-.14v-7.65l8.06-8.01h7.7l.14-.14h76.87l.14.14h7.93l8.3,8.25v92.77Z"/>
  <polygon class="cls-1" points="717.9 36.4 717.9 78.94 556.49 78.94 556.49 181.52 658.88 181.52 658.88 146.88 606.15 146.88 619.96 112.18 717.9 112.18 717.9 224.16 701.58 240.38 514.03 240.38 497.48 223.93 497.48 36.48 514.1 19.96 701.36 19.96 717.9 36.4"/>
  <path class="cls-1" d="M480.95,36.64v110.04l-16.48,16.38h-39.26c5.46,5.43,49.17,48.86,55.74,55.4v5.54l-16.48,16.38h-36.34c-8.87-8.82-70.11-69.77-77.87-77.49v-29.93l16.46-16.36h58.51v-41.11h-109.19v164.89h-34.35l-21.36-53.69V36.37l16.51-16.41h187.32l16.78,16.67Z"/>
  <g>
    <path class="cls-1" d="M74.51,215.47c-14.12-.82-42.1-2.32-56.24-3.14l-3.6-9.05,21.69-54.51c1.47,9.67,3.81,22.27,5.58,31.92l46.98,12.72-6.72,16.9-7.69,5.17Z"/>
    <path class="cls-1" d="M171.48,19.83l-.08-.21h-83.65s-47.9,120.38-47.91,120.41l1.33,7.4,64.57,3.74c5.36-13.46,18.67-46.91,23.84-59.94,5.14,12.93,18.53,46.56,23.83,59.9l64.57-3.74,1.33-7.35-47.83-120.2Z"/>
    <polygon class="cls-1" points="42.35 236.7 39.59 240.38 33.12 240.38 19.35 231.09 17.15 225.57 22.81 218.02 36.18 218.02 37.8 220.17 31.09 229.11 42.35 236.7"/>
    <path class="cls-1" d="M253.73,226.55c.09.13-5.45,13.7-5.45,13.83h-53.64l-7.83-5.28-16.59-41.7,46.98-12.72c1.47-8.25,4.43-23.71,5.55-31.98l30.98,77.85Z"/>
    <path class="cls-1" d="M217.37,150.73l-4.87,26.84s-41.26,11.15-41.35,11.2c0,0-83.16,0-83.16,0-11.13-3.1-30.05-8.11-41.35-11.2-1.35-7.37-3.71-19.55-4.86-26.84,17.25.99,71.6,4.23,87.88,4.87,16.85-.7,70.07-3.85,87.71-4.87Z"/>
    <polygon class="cls-1" points="49.37 236.7 60.63 229.11 53.92 220.17 55.54 218.02 68.91 218.02 74.57 225.57 72.37 231.09 58.6 240.37 52.13 240.37 49.37 236.7"/>
  </g>
</svg>